Coordinates
version=1
nRows=32
nColumns=12
inDegrees=yes

Units are S.I. units (second, meters, Newtons, ...)
Angles are in degrees

endheader
time	SC_y	SC_z	SC_x	AC_y	AC_z	AC_x	GH_y	GH_z	GH_yy	EL_x	PS_y
       0.0              -15.26         -1.811          3.466          51.22         -1.429         -14.81          146.6          9.039          92.43          51.58          53.56
   0.03267              -15.26         -1.805          3.466          51.22         -1.427         -14.81          146.5          9.044          92.41          51.58          53.57
   0.06533              -15.26         -1.799          3.466          51.21         -1.426         -14.81          146.5          9.049           92.4          51.59          53.58
     0.098              -15.27         -1.792          3.466          51.21         -1.424         -14.81          146.5          9.054          92.38          51.59          53.59
    0.1307              -15.27         -1.784          3.466          51.21         -1.423          -14.8          146.4           9.06          92.36           51.6           53.6
    0.1633              -15.28         -1.777          3.465          51.21         -1.421          -14.8          146.4          9.066          92.33           51.6          53.62
     0.196              -15.28         -1.768          3.465          51.21         -1.419          -14.8          146.3          9.073          92.31          51.61          53.63
    0.2287              -15.29         -1.759          3.465           51.2         -1.417         -14.79          146.3           9.08          92.28          51.62          53.64
    0.2613              -15.29          -1.75          3.465           51.2         -1.415         -14.79          146.2          9.087          92.26          51.62          53.66
     0.294               -15.3          -1.74          3.465           51.2         -1.412         -14.78          146.2          9.095          92.23          51.63          53.67
    0.3267               -15.3         -1.729          3.465           51.2          -1.41         -14.78          146.1          9.104           92.2          51.64          53.69
    0.3593              -15.31         -1.717          3.465          51.19         -1.407         -14.77          146.1          9.113          92.16          51.65          53.71
     0.392              -15.32         -1.704          3.464          51.19         -1.404         -14.77          146.0          9.123          92.13          51.66          53.73
    0.4247              -15.33          -1.69          3.464          51.18         -1.401         -14.76          145.9          9.133          92.09          51.67          53.75
    0.4573              -15.33         -1.675          3.464          51.18         -1.397         -14.75          145.8          9.145          92.05          51.68          53.77
      0.49              -15.34         -1.659          3.464          51.18         -1.394         -14.75          145.7          9.157           92.0          51.69          53.79
    0.5227              -15.35         -1.642          3.463          51.17          -1.39         -14.74          145.6          9.171          91.95           51.7          53.82
    0.5553              -15.37         -1.622          3.463          51.17         -1.385         -14.73          145.5          9.186           91.9          51.72          53.85
     0.588              -15.38         -1.601          3.463          51.16          -1.38         -14.72          145.4          9.202          91.84          51.73          53.88
    0.6207              -15.39         -1.579          3.463          51.15         -1.375         -14.71          145.3           9.22          91.77          51.75          53.91
    0.6533               -15.4         -1.553          3.462          51.15         -1.369          -14.7          145.2           9.24           91.7          51.77          53.95
     0.686              -15.42         -1.526          3.462          51.14         -1.363         -14.69          145.0          9.261          91.62          51.79          53.99
    0.7187              -15.44         -1.495          3.461          51.13         -1.356         -14.67          144.9          9.285          91.54          51.81          54.04
    0.7514              -15.46         -1.461          3.461          51.12         -1.348         -14.66          144.7          9.311          91.44          51.83          54.09
     0.784              -15.48         -1.424           3.46          51.11         -1.339         -14.64          144.5           9.34          91.34          51.86          54.15
    0.8167               -15.5         -1.382           3.46           51.1          -1.33         -14.62          144.2          9.373          91.22          51.89          54.21
    0.8494              -15.53         -1.335          3.459          51.08         -1.319          -14.6          144.0           9.41          91.08          51.93          54.28
     0.882              -15.56         -1.282          3.458          51.07         -1.307         -14.58          143.7          9.451          90.93          51.96          54.36
    0.9147               -15.6         -1.222          3.457          51.05         -1.293         -14.55          143.4          9.497          90.77          52.01          54.45
    0.9474              -15.63         -1.154          3.456          51.03         -1.277         -14.52          143.0           9.55          90.57          52.06          54.56
      0.98              -15.68         -1.076          3.455          51.01         -1.259         -14.49          142.6           9.61          90.36          52.11          54.67
     1.013              -15.73        -0.9875          3.454          50.99         -1.239         -14.45          142.1          9.679           90.1          52.18          54.81
